<?xml version="1.0" encoding="UTF-8" standalone="no"?>
<svg
   viewBox="0 0 64 64"
   version="1.1"
   id="logo"
   xmlns="http://www.w3.org/2000/svg"
   xmlns:svg="http://www.w3.org/2000/svg">
  <defs
     id="defs1" />
  <path
     d="M 19.488281,3.9980469 C 12.170712,3.8356691 4.6293241,7.468174 1.5273437,13.996094 -1.0337919,19.465003 -0.45547349,26.456007 3.5371094,31.167969 7.6849537,35.950718 15.311533,38.970268 21.453125,36.001953 21.948555,35.483316 18.057023,36.16649 16.824219,35.509766 10.611168,34.265575 6.8015609,28.176672 6.8085937,22.369141 6.8592808,17.700389 6.9414229,12.454671 10.445313,8.8085938 14.946191,3.5550166 24.583861,4.0481091 28.371094,9.8222656 c 2.010752,1.7506394 2.027787,5.9589434 4.451172,6.4179684 -0.0056,-1.784905 -0.0117,-3.570563 -0.01758,-5.355468 C 32.469711,8.7427742 33.454788,5.3109004 32.259766,4.0078125 30.897036,6.4451548 26.977999,5.9366034 24.460937,4.7285156 22.853439,4.2757603 21.176951,4.0355187 19.488281,3.9980469 Z M 40.484375,23.742187 c -3.532381,-0.113734 -6.965389,1.918744 -9.029297,4.664063 -3.184775,3.877296 -6.190274,8.751132 -11.658203,9.792969 -2.224436,0.465251 -6.29077,-0.156922 -2.265625,1.476562 5.066143,1.498923 10.109197,-1.633212 13.517578,-4.990234 3.150211,-2.909509 5.976111,-7.288813 10.878906,-7.28125 1.497063,-0.07892 3.0103,0.03133 4.470703,0.361328 2.839797,0.886878 -1.826645,-3.49228 -3.46875,-3.585938 -0.810062,-0.272456 -1.630147,-0.411253 -2.445312,-0.4375 z m 11.490234,1.429688 c -2.828185,0.904857 2.474874,1.094218 2.712891,2.660156 0.311255,4.366783 0.05384,8.787179 0.125,13.173828 H 37.091797 c -0.0093,-3.229714 -0.0155,-6.459726 -0.0098,-9.689453 -1.151792,-0.238768 -3.901941,3.29692 -5.488281,4.753906 -0.02143,6.675177 -0.111239,13.350519 -0.01758,20.025391 0.998646,3.106008 -4.033444,1.812878 -3.628906,3.904297 3.996332,-0.0039 7.991948,-0.0079 11.988281,-0.01172 2.836262,-0.947747 -2.508297,-1.035254 -2.714844,-2.669922 -0.324153,-4.366122 -0.04669,-8.787655 -0.128906,-13.173828 h 16.332031 c 2.774949,-0.49768 0.815002,3.556516 1.400391,5.160156 0.005,2.098922 -10e-4,4.996509 -0.0078,6.681641 1.033314,3.15337 -4.007634,1.920167 -3.642578,4.001953 4.008357,0.0038 8.017034,0.0078 12.025391,0.01172 2.916376,-1.00559 -2.867314,-0.994345 -2.785157,-2.908203 -0.126642,-6.838663 -0.0189,-13.687055 -0.05469,-20.529297 0.08497,-2.864764 -0.180777,-5.775905 0.154297,-8.607422 0.390093,-2.174064 4.103637,-0.607434 3.486328,-2.691406 -4.008356,-0.03083 -8.017035,-0.06092 -12.025391,-0.0918 z"
     id="path1" />
</svg>
